<svg width="1672" height="1672" viewBox="0 0 1672 1672" fill="none" xmlns="http://www.w3.org/2000/svg">
<path d="M304.667 0.958922C260.267 4.55892 220.8 15.0923 183.333 33.3589C98.9332 74.6923 35.1999 152.559 11.3333 243.892C5.59992 265.759 3.19992 281.359 1.33325 306.159C-0.400083 332.159 -0.533416 1340.83 1.33325 1366.83C4.53325 1412.43 13.7333 1447.09 33.3333 1486.83C50.2666 1521.49 66.5333 1544.56 92.5333 1571.36C145.733 1625.89 205.733 1656.56 282.667 1668.56C295.467 1670.56 343.6 1670.83 823.333 1671.23C1185.73 1671.49 1356.27 1671.23 1370 1670.16C1424.93 1666.29 1481.2 1646.96 1526.4 1616.56C1549.6 1600.96 1579.2 1573.89 1598.53 1550.56C1615.07 1530.69 1636.27 1495.49 1647.33 1469.49C1657.2 1446.56 1666 1412.29 1669.6 1383.49C1672.13 1362.83 1672.13 311.092 1669.6 289.492C1661.87 225.226 1635.2 163.759 1593.87 115.626C1539.87 52.6923 1472.53 15.6256 1388 2.42559C1375.2 0.425588 1328.13 0.292255 846 0.0255883C555.6 -0.107745 312 0.292255 304.667 0.958922ZM836 596.159V696.826H825.467H814.933L813.467 685.759C806.933 639.892 796.8 604.159 784 582.026C780.4 575.892 773.867 567.759 766.667 560.692C742.267 536.292 714.133 528.292 647.067 526.559L616 525.759V812.292C616 1100.16 616.267 1118.29 620.8 1137.89C627.867 1169.23 649.6 1184.29 692.667 1188.16C697.867 1188.56 704.533 1189.23 707.733 1189.63L713.333 1190.29V1199.89V1209.49H558H402.667V1199.76C402.667 1192.96 403.2 1190.16 404.4 1190.16C405.2 1190.16 413.867 1189.23 423.333 1188.16C454.4 1184.56 470.8 1178.16 482.667 1165.23C489.6 1157.76 492.933 1150.29 496.8 1134.03C499.067 1124.69 499.2 1106.96 499.6 825.092L500 526.159H481.067C380.8 526.292 341.867 546.692 319.6 610.959C313.867 627.626 308.8 648.559 305.333 670.826C303.867 680.292 302.267 690.159 301.867 692.426L301.2 696.826H290.667H280V596.159V495.492H558H836V596.159ZM1398.67 503.359C1398.67 510.826 1398 512.426 1386.93 532.426C1380.4 544.026 1367.07 567.892 1357.33 585.492C1342 612.959 1257.6 763.092 1232.67 806.826C1214.27 839.359 1181.2 898.159 1147.33 958.826C1127.73 994.026 1100.8 1042.03 1087.6 1065.49C1034.67 1159.63 1021.6 1183.49 1022.67 1184.16C1024.67 1185.36 1216.13 1183.49 1228.93 1182.16C1266.67 1178.16 1289.2 1167.89 1312.67 1144.29C1341.47 1115.09 1358.67 1074.83 1370 1009.76L1372.27 996.692L1382.27 997.092L1392.4 997.492L1392.53 1103.76L1392.67 1210.16H1144.67H896.667L897.333 1199.89C898.133 1187.76 891.467 1200.43 970.933 1058.83C984.533 1034.56 1004.67 998.559 1015.73 978.826C1026.67 958.959 1047.2 922.159 1061.33 896.826C1075.47 871.492 1105.73 817.226 1128.67 776.159C1151.6 735.092 1175.87 691.626 1182.67 679.492C1215.47 620.959 1266.67 528.426 1266.67 527.359C1266.67 525.759 1151.73 525.892 1122 527.492C1080.13 529.892 1060.8 533.759 1038 544.692C1023.6 551.626 1008 563.226 999.2 573.626C979.333 597.359 963.867 631.892 951.867 679.759L947.733 696.826H937.6H927.6L928.533 691.626C930.267 680.426 940 578.959 945.467 514.426L947.067 495.492H1172.93H1398.67V503.359Z" fill="#E8C840"/>
</svg>
